<svg id="Capa_1" data-name="Capa 1" xmlns="http://www.w3.org/2000/svg" viewBox="0 0 1030 332"><defs><style>.cls-1{fill:#fff;}.cls-2{fill:#787c7e;}.cls-3{fill:#6aaa64;}</style></defs><rect class="cls-1" x="1.18" y="0.94" width="159.19" height="159.18"/><path class="cls-2" d="M159.66,1.65V159.42H1.89V1.65H159.66M161.08.23H.48v160.6h160.6V.23Z"/><path d="M37,48.13H50.68l6.51,32.74c1.22,6.89,2.5,13.79,3.72,20.68h.46c1.56-6.89,3.21-13.85,4.86-20.68l9.22-32.74H87l9.22,32.74c1.65,6.72,3.3,13.73,5,20.68h.46c1.22-7,2.41-13.9,3.63-20.68l6.51-32.74h12.76l-14.41,64.8H93.67L84.36,78.81c-1.24-5-2.35-10-3.31-14.9h-.46c-1,4.91-2.15,9.86-3.39,14.9l-9.09,34.12H51.92Z"/><rect class="cls-1" x="174.96" y="0.94" width="159.19" height="159.18"/><path class="cls-2" d="M333.44,1.65V159.42H175.67V1.65H333.44M334.86.23H174.26v160.6h160.6V.23Z"/><path d="M221.48,80.27c0-21,13.53-33.33,33.08-33.33s33.08,12.43,33.08,33.33-13.54,33.85-33.08,33.85S221.48,101.24,221.48,80.27Zm52.48,0c0-14.54-7.61-23.34-19.4-23.34s-19.41,8.8-19.41,23.34,7.62,23.86,19.41,23.86S274,94.82,274,80.27Z"/><rect class="cls-1" x="348.75" y="0.94" width="159.19" height="159.18"/><path class="cls-2" d="M507.22,1.65V159.42H349.45V1.65H507.22M508.64.23H348v160.6h160.6V.23Z"/><path d="M400.42,48.13H425.7c15.6,0,27.62,4.76,27.62,19.22,0,13.93-12,20.25-27.62,20.25h-12v25.33H400.42Zm23.9,30.28c10.28,0,15.88-3.68,15.88-11.06s-5.6-10-15.88-10H413.73V78.41Zm-1.12,6.12,9.64-6.85,23.42,35.25h-15Z"/><rect class="cls-1" x="522.53" y="0.94" width="159.19" height="159.18"/><path class="cls-2" d="M681,1.65V159.42H523.24V1.65H681M682.42.23H521.82v160.6h160.6V.23Z"/><path d="M573.83,48.13h20c23,0,36.57,10.7,36.57,32.14s-13.59,32.66-35.88,32.66h-20.7ZM593,103.62c15.09,0,23.76-7.42,23.76-23.35S608.06,57.45,593,57.45h-5.83v46.17Z"/><rect class="cls-1" x="696.31" y="0.94" width="159.19" height="159.18"/><path class="cls-2" d="M854.79,1.65V159.42H697V1.65H854.79M856.2.23H695.6v160.6H856.2V.23Z"/><path d="M753.67,48.13H767v55.13h31.15v9.67H753.67Z"/><rect class="cls-1" x="870.09" y="0.94" width="159.19" height="159.18"/><path class="cls-2" d="M1028.57,1.65V159.42H870.8V1.65h157.77M1030,.23H869.38v160.6H1030V.23Z"/><path d="M926.54,48.13h45.14V57.8H939.84V74.41h27v9.67h-27v19.18h33v9.67H926.54Z"/><rect class="cls-3" x="174.43" y="169.99" width="160.6" height="160.6"/><path class="cls-1" d="M231.58,217.89h45.15v9.67H244.89v16.61h27v9.67h-27V273h33v9.67h-46.3Z"/><rect class="cls-3" x="348.17" y="169.99" width="160.6" height="160.6"/><path class="cls-1" d="M406.24,217.89h13.31V273H450.7v9.67H406.24Z"/><rect class="cls-3" x="521.91" y="169.99" width="160.6" height="160.6"/><path class="cls-1" d="M575.9,217.89h23.63c16.65,0,29,5,29,20,0,14.44-12.39,21-28.54,21H589.21v23.82H575.9Zm23,31.79c11.19,0,16.51-3.85,16.51-11.81s-5.82-10.78-17-10.78h-9.22v22.59Z"/><rect class="cls-3" x="695.65" y="169.99" width="160.6" height="160.6"/><path class="cls-1" d="M752.81,217.89H798v9.67H766.11v16.61h27v9.67h-27V273h33v9.67H752.81Z"/><rect class="cls-3" x="869.4" y="169.99" width="160.6" height="160.6"/><path class="cls-1" d="M921.78,217.89h25.28c15.6,0,27.62,4.76,27.62,19.22,0,13.93-12,20.25-27.62,20.25h-12v25.33H921.78Zm23.9,30.28c10.28,0,15.88-3.69,15.88-11.06s-5.6-10-15.88-10H935.09v21.08Zm-1.12,6.12,9.64-6.85,23.42,35.25h-15Z"/><rect class="cls-3" x="0.68" y="169.99" width="160.6" height="160.6"/><path class="cls-1" d="M52.52,217.89h13.3v26H96.15v-26h13.3v64.8H96.15V254H65.82v28.74H52.52Z"/></svg>